#!OML:ASF F:\VICON\USERDATA\INSTALL\rory3\rory3.ASF
:FULLY-SPECIFIED
:DEGREES
411
root 1.42569 18.9357 2.90203 19.7577 -70.6688 -23.1869
lowerback 7.30739 0.0742306 2.42702
upperback -5.98024 0.56698 2.73986
thorax -10.5191 0.181557 1.49246
lowerneck -24.5458 -6.62511 -7.58227
upperneck -7.7954 -7.35408 10.4093
head 2.05403 -3.30641 3.821
rclavicle -4.16951e-014 2.10712e-014
rhumerus 86.4583 -31.5084 -35.2027
rradius 29.5073
rwrist 11.3683
rhand -23.593 -3.44745
rfingers 7.12502
rthumb 2.87047 -33.4079
lclavicle -4.16951e-014 2.10712e-014
lhumerus 91.0277 35.1891 31.8351
lradius 28.8483
lwrist -18.9992
lhand -14.9938 22.5695
lfingers 7.12502
lthumb 11.1707 52.2521
rfemur -5.68045 -6.95042 13.6544
rtibia 40.4764
rfoot -8.18926 -15.8996
rtoes 17.395
lfemur -8.11389 -3.10247 -16.9346
ltibia 30.5504
lfoot 9.4131 -3.88022
ltoes -28.302
412
root 1.42215 18.9569 2.90428 19.4848 -71.0288 -23.0811
lowerback 7.3727 0.0908761 2.15959
upperback -5.95413 0.572607 2.89982
thorax -10.5338 0.210865 1.81412
lowerneck -24.7256 -6.82011 -8.43269
upperneck -7.54589 -7.39441 10.9234
head 2.21523 -3.27709 4.10664
rclavicle -1.22998e-014 -1.30701e-014
rhumerus 85.8295 -31.6075 -34.1498
rradius 29.7705
rwrist 10.8333
rhand -23.7813 -3.43096
rfingers 7.12502
rthumb 2.68853 -33.3938
lclavicle -1.22998e-014 -1.30701e-014
lhumerus 91.415 34.8639 32.6322
lradius 28.4968
lwrist -19.6355
lhand -14.9273 22.8542
lfingers 7.12502
lthumb 11.2348 52.5334
rfemur -5.85275 -6.43548 13.0742
rtibia 40.6463
rfoot -8.03559 -16.0455
rtoes 17.2932
lfemur -7.65263 -2.96438 -17.1699
ltibia 30.1388
lfoot 9.95016 -3.4456
ltoes -28.4795
413
root 1.42012 18.9832 2.9093 18.5999 -71.4198 -22.2662
lowerback 7.39778 0.124986 1.66192
upperback -5.95407 0.5694 3.01405
thorax -10.5547 0.251425 2.21799
lowerneck -24.7592 -6.80073 -8.65407
upperneck -7.46074 -7.30958 10.8757
head 2.24176 -3.22977 4.13423
rclavicle -4.81175e-014 5.8921e-015
rhumerus 85.3602 -31.661 -33.2874
rradius 29.9872
rwrist 10.489
rhand -23.8655 -3.38661
rfingers 7.12502
rthumb 2.60723 -33.3504
lclavicle -4.81175e-014 5.8921e-015
lhumerus 91.727 34.5201 33.4474
lradius 28.2015
lwrist -20.3063
lhand -15.3613 22.6434
lfingers 7.12502
lthumb 10.8163 52.3449
rfemur -6.0852 -5.75944 12.2955
rtibia 40.8488
rfoot -7.94065 -16.1786
rtoes 17.8161
lfemur -7.3341 -2.79334 -17.6972
ltibia 29.7785
lfoot 10.3881 -3.0329
ltoes -28.7422
414
root 1.41979 19.0082 2.91625 18.9474 -71.637 -22.6109
lowerback 7.29394 0.129594 1.68553
upperback -6.00134 0.585801 3.17007
thorax -10.5484 0.262682 2.37101
lowerneck -24.7055 -6.76961 -8.78119
upperneck -7.42499 -7.23733 10.7918
head 2.23788 -3.19528 4.13599
rclavicle -3.6887e-014 -7.8023e-015
rhumerus 85.0694 -31.677 -32.7831
rradius 30.0818
rwrist 10.3935
rhand -23.9469 -3.08579
rfingers 7.12502
rthumb 2.52863 -33.0505
lclavicle -3.6887e-014 -7.8023e-015
lhumerus 92.142 34.1166 34.3268
lradius 27.9125
lwrist -21.0431
lhand -15.6442 22.6129
lfingers 7.12502
lthumb 10.5434 52.3285
rfemur -6.44931 -5.04966 12.0536
rtibia 41.0567
rfoot -7.60527 -16.2453
rtoes 18.5233
lfemur -7.23825 -2.64013 -17.7762
ltibia 29.4487
lfoot 11.0228 -2.34764
ltoes -28.78
415
root 1.42098 19.0298 2.9185 19.2534 -71.853 -22.9056
lowerback 7.24416 0.152154 1.70057
upperback -6.08964 0.622998 3.25695
thorax -10.6201 0.281948 2.45242
lowerneck -24.7209 -6.82108 -8.98491
upperneck -7.26933 -7.25474 10.8693
head 2.30019 -3.19196 4.18826
rclavicle -2.0773e-014 3.37934e-015
rhumerus 84.5812 -31.7131 -32.1583
rradius 30.1588
rwrist 10.2462
rhand -24.0706 -2.78134
rfingers 7.12502
rthumb 2.40914 -32.7475
lclavicle -2.0773e-014 3.37934e-015
lhumerus 92.7611 33.5665 35.3462
lradius 27.5933
lwrist -21.7001
lhand -15.3787 22.8366
lfingers 7.12502
lthumb 10.7994 52.539
rfemur -6.81866 -4.57529 11.8213
rtibia 41.2477
rfoot -6.88422 -16.2862
rtoes 18.4293
lfemur -7.15999 -2.63013 -17.8638
ltibia 29.1788
lfoot 11.7011 -1.04947
ltoes -28.6127
416
root 1.42203 19.0516 2.91667 18.9672 -71.9924 -22.6347
lowerback 7.27056 0.157343 1.5388
upperback -6.17454 0.615858 3.29487
thorax -10.7335 0.292135 2.58838
lowerneck -24.7962 -6.8661 -9.06806
upperneck -7.07657 -7.28919 10.8407
head 2.37301 -3.20155 4.18456
rclavicle -2.55687e-014 2.98177e-015
rhumerus 83.985 -31.777 -31.4204
rradius 30.2319
rwrist 10.1123
rhand -24.2296 -2.16087
rfingers 7.12502
rthumb 2.25558 -32.1287
lclavicle -2.55687e-014 2.98177e-015
lhumerus 93.5596 32.9459 36.6054
lradius 27.2372
lwrist -22.6929
lhand -14.9567 22.6687
lfingers 7.12502
lthumb 11.2065 52.3494
rfemur -7.08748 -4.19308 11.4697
rtibia 41.4264
rfoot -6.30302 -16.3091
rtoes 18.5179
lfemur -7.06102 -2.61443 -18.1443
ltibia 28.9697
lfoot 12.3315 0.296108
ltoes -27.9442
